v 0.766022 1.666666 -0.133810
v 0.807186 2.211185 -0.087223
v 0.817888 1.930721 -0.018187
v 0.843008 0.932600 -0.165942
v 0.680690 2.253874 -0.045463
v 0.668732 2.118551 -0.141137
v 0.709052 2.071120 -0.108943
v 0.638151 2.088665 -0.096714
v 0.696216 2.067407 -0.013440
v 0.814452 1.028442 -0.072688
v 0.740074 1.543513 -0.065950
v 0.734689 2.101974 -0.128272
v 0.843898 0.791439 -0.140707
v 0.876335 1.118024 -0.159422
v 0.916789 0.905940 -0.166136
v 0.734634 2.147170 0.030881
v 0.785953 2.033625 -0.129712
v 0.782902 2.188405 -0.121449
v 0.748639 0.945676 -0.121966
v 0.847324 0.765914 -0.091360
v 0.870231 1.028589 -0.186306
v 0.880729 0.915103 -0.183267
v 0.892387 0.846986 -0.177399
v 0.738859 0.919958 -0.160554
v 0.824941 1.572820 -0.133288
v 0.933559 0.804361 -0.028749
v 0.820507 0.851794 -0.114887
v 0.769149 1.125238 -0.161775
v 0.812009 1.231701 -0.172048
v 0.861504 1.756880 -0.064479
v 0.716185 0.797316 -0.024293
v 0.694889 2.047492 -0.068296
v 0.746904 1.762390 -0.054594
v 0.737992 2.019539 -0.113885
v 0.745199 0.780451 -0.116959
v 0.746575 0.833541 -0.153943
v 0.869300 0.840305 -0.013609
v 0.840513 1.885524 -0.082236
v 0.627228 2.135788 -0.111380
v 0.821447 0.776517 -0.028560
v 0.827780 1.112389 -0.080875
v 0.767439 1.100322 -0.125628
v 0.829829 2.208021 -0.017869
v 0.754742 0.913548 -0.076133
v 0.923804 0.824715 -0.137141
v 0.803014 0.765394 -0.084420
v 0.767243 2.044389 0.028270
v 0.825745 1.749191 -0.127677
v 0.627661 2.188040 -0.012716
v 0.903228 0.986358 -0.145669
v 0.715703 2.018313 -0.055500
v 0.853563 0.828715 -0.146822
v 0.796990 0.774053 -0.118347
v 0.635254 2.221890 -0.063783
v 0.854698 2.144725 -0.012936
v 0.899497 0.783491 -0.111169
v 0.883751 0.794219 -0.019675
v 0.784795 1.938777 -0.133113
v 0.770007 0.775744 -0.000920
v 0.664716 2.147337 0.026494
v 0.860864 0.916844 -0.083508
v 0.830000 0.893553 -0.125271
v 0.790215 0.912427 -0.138244
v 0.781211 1.800568 -0.004408
v 0.788826 1.696524 -0.003997
v 0.784206 0.835291 0.000252
v 0.774284 0.865634 -0.029681
v 0.851762 1.702769 -0.041463
v 0.738897 1.506341 -0.104538
v 0.637558 2.101605 -0.016794
v 0.837854 2.010347 -0.084600
v 0.752086 0.773185 -0.142117
v 0.819146 0.831744 -0.011374
v 0.794229 2.044997 0.002217
v 0.774405 1.967679 0.008538
v 0.694171 0.854616 -0.045159
v 0.853857 1.292707 -0.134088
v 0.745159 2.187759 -0.147537
v 0.736350 2.013116 -0.015710
v 0.782923 0.920323 -0.065994
v 0.752208 2.244223 -0.090955
v 0.678747 2.240445 -0.119415
v 0.881527 0.894767 -0.068932
v 0.863140 0.778582 -0.022863
v 0.781385 2.214339 0.010204
v 0.649186 2.196869 -0.137966
v 0.828861 0.798521 -0.006187
v 0.778101 0.840447 -0.138765
v 0.758884 0.742043 -0.062565
v 0.820152 1.578106 -0.024198
v 0.612048 2.141132 -0.048662
v 0.939453 0.851640 -0.101792
v 0.836460 1.319239 -0.093090
v 0.838943 0.978632 -0.192582
v 0.758442 0.926421 -0.186159
v 0.750448 0.793669 -0.014165
v 0.813072 1.279183 -0.074257
v 0.791287 2.131154 -0.145184
v 0.828371 2.143128 -0.115501
v 0.765571 1.496252 -0.043100
v 0.923935 0.895368 -0.091592
v 0.894329 0.881991 -0.033173
v 0.698216 2.194877 0.036176
v 0.924369 0.867416 -0.030840
v 0.738950 1.814456 -0.083904
v 0.759485 0.898243 -0.170052
v 0.777938 2.180367 0.045481
v 0.859943 0.805454 0.001636
v 0.798378 2.224406 -0.035826
v 0.797411 0.867171 -0.064309
v 0.815198 2.080254 0.013969
v 0.829299 2.167850 0.031625
v 0.845200 2.166808 -0.084248
v 0.722595 0.848525 -0.019293
v 0.805228 0.818493 -0.134352
v 0.820871 0.881553 -0.095732
v 0.744192 0.763840 -0.054677
v 0.830860 2.046953 -0.011137
v 0.694611 0.789584 -0.059897
v 0.855733 0.851489 -0.060864
v 0.803643 2.138861 0.033854
v 0.774397 2.141600 0.060552
v 0.757696 1.321886 -0.100225
v 0.701428 0.805607 -0.121733
vn 0.7825 -0.1136 0.6122
vn 0.4936 -0.0472 0.8684
vn 0.2375 -0.4708 -0.8497
vn -0.7939 -0.0790 0.6028
vn -0.3507 -0.5255 0.7752
vn -0.7755 -0.0086 0.6313
vn -0.4538 -0.1708 -0.8746
vn 0.4255 -0.2529 -0.8689
vn 0.8385 0.1348 0.5280
vn 0.0247 -0.9840 0.1763
vn -0.6050 0.0923 0.7909
vn -0.0288 0.4071 0.9129
vn -0.3164 0.5827 -0.7486
vn -0.5558 -0.2360 0.7971
vn -0.9416 0.2233 -0.2522
vn 0.6567 -0.0358 0.7533
vn -0.6478 -0.1433 0.7482
vn -0.2300 -0.5523 -0.8013
vn -0.7756 0.5270 0.3474
vn 0.1704 -0.4893 0.8553
vn 0.9603 0.1855 0.2083
vn -0.6508 -0.7085 0.2729
vn 0.7932 -0.5815 -0.1806
vn 0.6043 0.0217 0.7965
vn -0.5828 -0.0835 0.8083
vn -0.6252 0.5918 0.5088
vn 0.7487 0.6268 -0.2158
vn 0.6023 0.0344 -0.7975
vn -0.0977 0.0159 -0.9951
vn -0.5469 -0.2273 0.8058
vn -0.6557 0.6054 0.4511
vn 0.1073 0.3689 0.9233
vn -0.6298 0.6873 0.3620
vn -0.4210 -0.8657 -0.2707
vn -0.8371 -0.5074 0.2045
vn 0.7113 0.1574 -0.6850
vn -0.5285 0.3491 0.7738
vn 0.2143 -0.9032 -0.3719
vn -0.8028 0.1150 -0.5850
vn -0.8001 0.0592 -0.5970
vn 0.2846 0.5368 0.7943
vn 0.7402 -0.1198 -0.6617
vn 0.4238 0.7010 0.5735
vn -0.1886 -0.7189 -0.6690
vn -0.7081 0.3649 0.6046
vn 0.9822 -0.1866 -0.0229
vn -0.8016 -0.1531 0.5779
vn -0.9651 -0.1324 -0.2260
vn -0.9968 -0.0356 -0.0717
vn -0.4108 0.2972 -0.8619
vn 0.8928 -0.0949 0.4403
vn -0.3335 -0.2641 -0.9050
vn 0.4162 0.6172 -0.6677
vn 0.9043 -0.1257 0.4081
vn -0.7766 -0.3882 -0.4962
vn 0.3226 0.7130 0.6226
vn 0.4723 0.2716 0.8386
vn -0.7245 0.1799 0.6654
vn 0.3414 0.6602 0.6691
vn 0.9273 -0.0523 -0.3707
vn 0.9271 -0.3444 -0.1481
vn -0.9578 0.2838 0.0457
vn 0.6910 -0.1189 0.7130
vn -0.4930 0.1006 0.8642
vn 0.4936 0.3938 -0.7755
vn -0.7183 -0.0521 0.6938
vn -0.0635 -0.1841 0.9808
vn -0.0266 -0.9697 -0.2427
vn -0.9381 -0.2807 -0.2031
vn -0.4675 0.6658 0.5815
vn -0.3687 0.1642 0.9149
vn -0.5324 0.8352 -0.1377
vn 0.2644 0.0295 -0.9640
vn 0.4697 0.8106 0.3497
vn 0.6377 -0.2495 0.7288
vn 0.7309 0.2197 0.6462
vn -0.8037 -0.0565 0.5924
vn 0.8086 -0.1869 0.5579
vn 0.3283 0.2387 0.9139
vn 0.6937 0.1241 0.7095
vn 0.2280 0.9613 0.1546
vn -0.5608 -0.1659 -0.8112
vn -0.6568 -0.6054 0.4495
vn -0.6716 0.0117 0.7408
vn 0.2744 0.1033 0.9561
vn -0.9323 -0.0566 -0.3571
vn 0.2191 -0.0035 0.9757
vn -0.9768 0.0196 -0.2134
vn 0.7374 0.1403 -0.6607
vn 0.8643 0.0723 -0.4978
vn 0.7601 -0.1235 0.6380
vn 0.5172 0.8461 -0.1290
vn -0.8150 -0.0614 0.5762
vn 0.8769 0.3686 0.3085
vn -0.8185 0.4134 0.3988
vn -0.9862 -0.0651 0.1520
vn -0.4135 0.7188 0.5589
vn -0.2614 -0.1761 -0.9490
vn -0.0566 -0.4640 0.8840
vn -0.2157 -0.1415 -0.9661
vn -0.5048 -0.8527 0.1343
vn -0.8434 -0.5208 -0.1318
vn 0.6160 0.0658 -0.7850
vn 0.9169 -0.0149 0.3988
vn 0.2236 -0.9628 0.1514
vn -0.3232 0.0379 -0.9456
vn 0.1296 -0.2323 -0.9640
vn 0.3203 0.0414 0.9464
vn 0.3880 -0.6441 -0.6592
vn -0.2888 -0.7806 -0.5543
vn -0.1226 0.0673 -0.9902
vn 0.1202 -0.8783 -0.4627
vn 0.7492 -0.3076 -0.5866
vn 0.6313 -0.2859 0.7209
vn 0.6666 -0.2973 0.6836
vn -0.0969 -0.1622 0.9820
vn 0.7451 -0.1273 0.6546
vn 0.2660 0.0707 0.9614
vn 0.1923 -0.0686 0.9789
vn 0.9645 0.2051 -0.1667
vn 0.9426 0.3007 0.1450
vn -0.1024 -0.7010 -0.7058
vn -0.5432 -0.5121 -0.6654
vn -0.7011 -0.0179 -0.7128
vn 0.0116 0.0018 -0.9999
vn 0.3509 -0.6078 0.7124
vn -0.7160 -0.6365 -0.2867
vn 0.4088 0.0051 -0.9126
vn 0.1063 -0.0449 0.9933
vn -0.3407 0.0465 -0.9390
vn 0.5123 -0.0110 0.8587
vn 0.1555 -0.9157 -0.3705
vn -0.4627 -0.2372 -0.8542
vn 0.1528 -0.0098 -0.9882
vn 0.1923 0.8301 0.5235
vn 0.1999 0.8502 0.4870
vn 0.7214 -0.0676 -0.6892
vn 0.6448 -0.1293 -0.7534
vn -0.8844 -0.1618 0.4378
vn 0.2074 -0.0070 -0.9782
vn 0.3985 0.3196 -0.8597
vn -0.7075 -0.2373 0.6657
vn 0.7707 -0.2945 -0.5651
vn 0.1753 0.1046 -0.9790
vn -0.7561 -0.5722 0.3176
vn 0.8697 0.0117 -0.4935
vn 0.1405 0.9472 0.2881
vn -0.3966 0.5504 0.7346
vn -0.3412 0.0259 -0.9396
vn -0.5685 0.2404 0.7868
vn 0.3723 -0.9122 0.1710
vn -0.2576 -0.7587 0.5984
vn -0.4497 -0.7766 0.4412
vn 0.2759 0.0240 0.9609
vn -0.9943 0.0171 -0.1052
vn 0.0188 0.9836 -0.1791
vn -0.8843 0.4596 -0.0822
vn 0.3486 -0.2388 0.9064
vn 0.9519 -0.2283 0.2044
vn -0.0622 -0.1569 0.9857
vn -0.8009 0.0263 -0.5982
vn -0.0505 0.4200 -0.9061
vn 0.4393 -0.3754 -0.8162
vn -0.6377 -0.3598 -0.6811
vn -0.5565 -0.4408 0.7043
vn 0.5153 0.8471 -0.1296
vn -0.1505 0.9515 0.2684
vn -0.0063 0.8099 0.5866
vn 0.9434 0.3038 0.1330
vn 0.6806 0.2123 0.7012
vn 0.2112 0.9357 0.2826
vn 0.9112 0.0952 -0.4009
vn -0.9874 -0.0977 0.1243
vn -0.9869 -0.0976 0.1281
vn -0.6047 -0.1440 0.7833
vn 0.6745 0.0004 -0.7383
vn 0.8032 0.2363 0.5469
vn 0.0260 -0.5462 -0.8373
vn 0.9736 0.1477 0.1741
vn 0.3786 0.8419 0.3846
vn -0.4961 -0.1204 0.8599
vn 0.2290 -0.1285 0.9649
vn 0.9962 0.0228 0.0835
vn -0.0347 -0.6756 0.7365
vn -0.7429 -0.0481 -0.6677
vn -0.9411 0.2306 -0.2474
vn -0.9444 0.2290 -0.2361
vn -0.8274 0.0377 -0.5604
vn -0.5375 -0.4574 -0.7084
vn -0.2590 0.0746 0.9630
vn 0.1421 0.1634 0.9763
vn 0.6269 -0.2050 -0.7517
vn -0.1756 -0.2047 -0.9629
vn 0.2841 0.7188 0.6345
vn 0.5050 -0.0788 -0.8595
vn -0.5274 0.1313 -0.8394
vn 0.4714 0.5423 -0.6955
vn -0.2288 -0.0995 -0.9684
vn -0.1853 -0.2098 0.9600
vn -0.9000 -0.4173 -0.1259
vn -0.7035 0.6229 -0.3422
vn 0.5664 0.4808 -0.6693
vn 0.5679 0.4398 -0.6957
vn -0.4418 0.4119 0.7969
vn 0.3324 -0.8980 -0.2882
vn 0.0604 0.0871 -0.9944
vn -0.9878 0.1461 0.0540
vn -0.8641 -0.4978 0.0742
vn 0.9310 0.3649 -0.0110
vn 0.7272 -0.1742 -0.6639
vn 0.9102 -0.3456 -0.2283
vn -0.9716 -0.0156 0.2359
vn -0.9995 0.0312 0.0005
vn 0.8491 0.0328 0.5272
vn 0.2959 0.9045 0.3071
vn -0.7996 -0.1743 0.5747
vn -0.4649 -0.8536 -0.2352
vn 0.6086 0.1900 -0.7704
vn 0.4838 0.1985 -0.8524
vn 0.9685 0.0113 -0.2488
vn -0.2856 -0.6925 -0.6625
vn 0.4890 -0.0542 0.8706
vn -0.3864 0.7079 0.5913
vn 0.5614 -0.7646 0.3167
vn 0.1017 -0.9816 0.1619
vn -0.7484 -0.4736 0.4643
vn -0.6111 -0.1208 -0.7823
vn -0.9368 -0.0549 -0.3456
vn 0.9771 0.1894 -0.0969
vn 0.5539 -0.2462 -0.7953
vn 0.2369 0.6728 -0.7009
vn -0.0773 0.6776 0.7314
vn 0.0401 -0.9824 0.1824
vn 0.0071 -0.3200 0.9474
vn -0.9784 0.1229 0.1661
vn 0.3344 -0.7250 0.6022
vn -0.8359 -0.1267 0.5340
vn -0.4302 0.1812 0.8843
vn 0.1775 -0.2753 -0.9448
vn 0.6693 0.2153 0.7111
vn -0.0623 -0.7012 0.7103
vn -0.2886 -0.0572 0.9557
vn 0.6036 -0.7973 0.0081
vn 0.1057 -0.8802 -0.4626
s off
f 90//1 93//1 68//1
f 75//2 64//2 3//2
f 95//3 94//3 4//3
f 64//4 75//4 33//4
f 60//5 70//5 9//5
f 11//6 65//6 33//6
f 7//7 12//7 34//7
f 52//8 56//8 13//8
f 14//9 41//9 61//9
f 20//10 84//10 40//10
f 41//11 42//11 19//11
f 37//12 73//12 108//12
f 27//13 52//13 115//13
f 97//14 100//14 123//14
f 54//15 86//15 91//15
f 30//16 3//16 65//16
f 75//17 79//17 33//17
f 124//18 36//18 35//18
f 120//19 37//19 83//19
f 80//20 116//20 61//20
f 38//21 3//21 30//21
f 8//22 32//22 9//22
f 56//23 45//23 26//23
f 97//24 41//24 93//24
f 41//25 97//25 42//25
f 107//26 85//26 16//26
f 113//27 2//27 43//27
f 22//28 21//28 23//28
f 86//29 78//29 6//29
f 47//30 122//30 9//30
f 102//31 83//31 37//31
f 104//32 102//32 37//32
f 54//33 49//33 5//33
f 119//34 124//34 117//34
f 9//35 32//35 51//35
f 21//36 14//36 15//36
f 122//37 107//37 16//37
f 53//38 89//38 72//38
f 24//39 28//39 95//39
f 24//40 95//40 124//40
f 61//41 101//41 50//41
f 106//42 63//42 88//42
f 112//43 43//43 85//43
f 56//44 52//44 23//44
f 66//45 67//45 96//45
f 25//46 30//46 68//46
f 123//47 100//47 11//47
f 35//48 36//48 72//48
f 42//49 123//49 28//49
f 12//50 18//50 98//50
f 68//51 93//51 77//51
f 53//52 115//52 13//52
f 78//53 81//53 2//53
f 38//54 118//54 3//54
f 34//55 32//55 7//55
f 83//56 101//56 61//56
f 68//57 30//57 65//57
f 10//58 41//58 19//58
f 107//59 112//59 85//59
f 45//60 15//60 92//60
f 45//61 92//61 26//61
f 49//62 54//62 91//62
f 47//63 75//63 74//63
f 66//64 96//64 59//64
f 98//65 18//65 99//65
f 65//66 11//66 100//66
f 65//67 100//67 90//67
f 53//68 20//68 46//68
f 39//69 8//69 91//69
f 5//70 49//70 103//70
f 80//71 10//71 44//71
f 54//72 5//72 82//72
f 25//73 58//73 48//73
f 73//74 110//74 67//74
f 111//75 118//75 112//75
f 80//76 110//76 116//76
f 65//77 64//77 33//77
f 112//78 118//78 55//78
f 73//79 66//79 87//79
f 57//80 37//80 108//80
f 109//81 81//81 5//81
f 52//82 22//82 23//82
f 117//83 89//83 59//83
f 31//84 114//84 76//84
f 16//85 85//85 103//85
f 51//86 34//86 105//86
f 10//87 80//87 61//87
f 98//88 58//88 17//88
f 48//89 58//89 38//89
f 48//90 38//90 30//90
f 111//91 3//91 118//91
f 2//92 81//92 109//92
f 70//93 60//93 91//93
f 112//94 55//94 43//94
f 10//95 19//95 44//95
f 79//96 105//96 33//96
f 19//97 76//97 44//97
f 12//98 17//98 34//98
f 16//99 60//99 9//99
f 17//100 12//100 98//100
f 70//101 8//101 9//101
f 72//102 89//102 117//102
f 29//103 25//103 77//103
f 41//104 77//104 93//104
f 26//105 57//105 56//105
f 34//106 17//106 58//106
f 6//107 78//107 12//107
f 41//108 10//108 61//108
f 56//109 23//109 45//109
f 8//110 7//110 32//110
f 29//111 94//111 95//111
f 13//112 56//112 20//112
f 106//113 95//113 63//113
f 122//114 47//114 121//114
f 47//115 74//115 121//115
f 90//116 100//116 97//116
f 90//117 97//117 93//117
f 104//118 37//118 26//118
f 37//119 57//119 26//119
f 50//120 92//120 15//120
f 50//121 101//121 92//121
f 63//122 4//122 62//122
f 62//123 4//123 22//123
f 27//124 62//124 52//124
f 58//125 25//125 1//125
f 84//126 57//126 108//126
f 32//127 34//127 51//127
f 23//128 21//128 15//128
f 87//129 66//129 59//129
f 28//130 1//130 29//130
f 68//131 65//131 90//131
f 95//132 4//132 63//132
f 36//133 124//133 95//133
f 72//134 88//134 115//134
f 116//135 110//135 120//135
f 73//136 120//136 110//136
f 58//137 98//137 71//137
f 71//138 98//138 99//138
f 79//139 51//139 105//139
f 94//140 21//140 22//140
f 88//141 27//141 115//141
f 47//142 79//142 75//142
f 95//143 106//143 36//143
f 1//144 25//144 29//144
f 51//145 79//145 9//145
f 25//146 48//146 30//146
f 83//147 102//147 101//147
f 67//148 80//148 44//148
f 34//149 58//149 1//149
f 60//150 103//150 49//150
f 56//151 57//151 20//151
f 31//152 117//152 96//152
f 117//153 31//153 119//153
f 3//154 64//154 65//154
f 119//155 76//155 124//155
f 81//156 82//156 5//156
f 24//157 76//157 19//157
f 112//158 121//158 111//158
f 71//159 55//159 118//159
f 103//160 60//160 16//160
f 1//161 28//161 69//161
f 86//162 82//162 78//162
f 72//163 115//163 53//163
f 39//164 6//164 8//164
f 47//165 9//165 79//165
f 43//166 2//166 109//166
f 73//167 37//167 120//167
f 85//168 5//168 103//168
f 101//169 104//169 92//169
f 61//170 50//170 14//170
f 85//171 109//171 5//171
f 25//172 68//172 77//172
f 69//173 123//173 11//173
f 123//174 69//174 28//174
f 16//175 9//175 122//175
f 71//176 38//176 58//176
f 110//177 80//177 67//177
f 6//178 12//178 7//178
f 92//179 104//179 26//179
f 102//180 104//180 101//180
f 123//181 42//181 97//181
f 112//182 107//182 121//182
f 71//183 118//183 38//183
f 108//184 87//184 84//184
f 62//185 22//185 52//185
f 91//186 86//186 39//186
f 76//187 24//187 124//187
f 69//188 105//188 1//188
f 4//189 94//189 22//189
f 87//190 108//190 73//190
f 96//191 67//191 114//191
f 106//192 88//192 72//192
f 106//193 72//193 36//193
f 67//194 66//194 73//194
f 63//195 27//195 88//195
f 95//196 28//196 29//196
f 2//197 18//197 78//197
f 115//198 52//198 13//198
f 111//199 74//199 3//199
f 117//200 35//200 72//200
f 82//201 86//201 54//201
f 99//202 18//202 113//202
f 18//203 2//203 113//203
f 120//204 83//204 116//204
f 89//205 53//205 46//205
f 29//206 21//206 94//206
f 24//207 42//207 28//207
f 8//208 70//208 91//208
f 43//209 55//209 113//209
f 23//210 15//210 45//210
f 99//211 113//211 55//211
f 33//212 105//212 69//212
f 33//213 69//213 11//213
f 77//214 41//214 14//214
f 85//215 43//215 109//215
f 60//216 49//216 91//216
f 124//217 35//217 117//217
f 14//218 21//218 77//218
f 21//219 29//219 77//219
f 71//220 99//220 55//220
f 7//221 8//221 6//221
f 3//222 74//222 75//222
f 76//223 114//223 44//223
f 46//224 59//224 89//224
f 40//225 59//225 46//225
f 96//226 117//226 59//226
f 39//227 86//227 6//227
f 1//228 105//228 34//228
f 14//229 50//229 15//229
f 12//230 78//230 18//230
f 82//231 81//231 78//231
f 114//232 67//232 44//232
f 46//233 20//233 40//233
f 111//234 121//234 74//234
f 19//235 42//235 24//235
f 59//236 40//236 87//236
f 31//237 76//237 119//237
f 83//238 61//238 116//238
f 63//239 62//239 27//239
f 121//240 107//240 122//240
f 87//241 40//241 84//241
f 114//242 31//242 96//242
f 20//243 57//243 84//243
f 13//244 20//244 53//244
