v -0.773775 1.541395 -0.142926
v -0.850241 1.577617 -0.081208
v -0.833964 1.554879 -0.125155
v -0.803208 2.216028 -0.084073
v -0.860773 0.960178 -0.187465
v -0.809916 0.927385 -0.154714
v -0.788221 2.218287 0.005942
v -0.627771 2.198969 -0.028834
v -0.708111 2.132113 -0.152330
v -0.699001 2.067459 -0.100046
v -0.693155 2.068072 -0.014535
v -0.803381 1.955359 -0.119860
v -0.810626 1.562404 -0.140261
v -0.782792 2.188045 -0.121344
v -0.779844 0.862783 -0.028593
v -0.726216 0.856520 -0.158390
v -0.850962 0.767037 -0.086124
v -0.873656 1.136937 -0.161728
v -0.892058 0.846746 -0.177278
v -0.935556 0.884486 -0.100965
v -0.926272 0.865875 -0.031898
v -0.764274 1.108176 -0.129962
v -0.749452 0.943459 -0.117222
v -0.777459 2.025310 -0.129990
v -0.857888 0.802555 0.003253
v -0.825340 1.593053 -0.027385
v -0.761463 0.868135 -0.156313
v -0.845685 0.831890 -0.140745
v -0.811558 0.841938 -0.115052
v -0.814596 1.240344 -0.077920
v -0.683126 2.228661 -0.130225
v -0.801329 0.974274 -0.195380
v -0.772114 1.041934 -0.172954
v -0.710839 0.818645 -0.015549
v -0.747496 1.528550 -0.057104
v -0.904670 0.892077 -0.042467
v -0.733369 2.011824 -0.020613
v -0.743561 1.816613 -0.052220
v -0.717823 0.877033 -0.041981
v -0.745986 1.780660 -0.110954
v -0.741914 0.783007 -0.114604
v -0.872016 0.841959 -0.017689
v -0.833103 1.838511 -0.044157
v -0.830364 2.037373 -0.014711
v -0.636809 2.088440 -0.091453
v -0.637266 2.138965 -0.128315
v -0.614404 2.145350 -0.070861
v -0.822306 0.776719 -0.028391
v -0.923267 0.816673 -0.130436
v -0.841337 1.036851 -0.088970
v -0.798502 2.178696 0.031752
v -0.772383 2.201863 0.020943
v -0.829408 2.208729 -0.018346
v -0.801580 0.765177 -0.095339
v -0.826081 1.749232 -0.127364
v -0.677989 2.256856 -0.057775
v -0.736668 1.526134 -0.089749
v -0.695591 0.786865 -0.058566
v -0.709626 2.031410 -0.062212
v -0.756250 0.788898 -0.147008
v -0.748510 0.826048 -0.148814
v -0.841727 0.789675 -0.140376
v -0.768084 0.742410 -0.065055
v -0.788083 0.770880 -0.119578
v -0.641419 2.224798 -0.097745
v -0.864630 0.780822 -0.122027
v -0.798734 1.459926 -0.039108
v -0.772969 0.772489 -0.006162
v -0.786914 0.830718 0.003129
v -0.661716 2.197886 0.019950
v -0.678400 2.163655 0.038407
v -0.901393 0.986575 -0.143612
v -0.689743 0.833966 -0.064737
v -0.827575 0.892100 -0.124396
v -0.730297 2.096176 -0.125913
v -0.787128 1.694278 -0.005424
v -0.622024 2.117633 -0.027713
v -0.835105 1.981256 -0.081342
v -0.841136 2.078530 -0.085683
v -0.810416 0.835537 -0.016619
v -0.852301 1.320308 -0.120798
v -0.930657 0.801150 -0.028488
v -0.750941 2.215671 -0.132365
v -0.764109 2.037664 0.024713
v -0.854606 0.927444 -0.083842
v -0.776988 0.906622 -0.059594
v -0.812111 1.025687 -0.071888
v -0.717021 2.255930 -0.074279
v -0.880649 0.896070 -0.071743
v -0.849514 1.693023 -0.036110
v -0.862429 0.773165 -0.034501
v -0.645406 2.184413 -0.139607
v -0.774663 2.141899 0.061026
v -0.909072 0.908743 -0.178145
v -0.860422 0.911247 -0.155057
v -0.746600 0.763086 -0.038595
v -0.746021 0.756261 -0.111668
v -0.758251 1.331365 -0.143835
v -0.861904 1.733848 -0.067710
v -0.790392 2.058552 0.005980
v -0.825828 2.164488 0.035846
v -0.854412 2.142920 -0.011384
v -0.827268 1.141531 -0.083315
v -0.758286 0.924627 -0.185390
v -0.785221 1.898890 -0.001863
v -0.750105 0.801955 -0.013014
v -0.815615 2.136503 -0.129996
v -0.779595 2.134807 -0.144348
v -0.809551 1.933237 -0.012972
v -0.756321 1.322540 -0.101285
v -0.845287 2.166887 -0.084234
v -0.814343 0.876310 -0.094614
v -0.877604 0.796748 -0.016329
v -0.728107 0.908185 -0.140293
v -0.825094 0.812398 -0.004143
v -0.829813 1.219479 -0.170708
v -0.790825 0.821293 -0.139351
v -0.846662 0.852301 -0.064598
v -0.698458 0.802557 -0.113843
v -0.779073 0.901408 -0.140307
v -0.730858 2.138420 0.028357
v -0.734768 2.029633 -0.111291
v -0.814598 2.079053 0.013598
vn -0.2911 -0.8633 -0.4123
vn 0.2990 -0.5742 -0.7622
vn -0.7942 -0.0762 -0.6029
vn 0.6535 0.0252 -0.7565
vn -0.7782 0.3956 0.4877
vn 0.0674 -0.9889 0.1324
vn -0.4295 0.1309 -0.8935
vn 0.8617 -0.2759 -0.4259
vn 0.6301 0.1161 0.7678
vn 0.9592 0.0650 -0.2751
vn -0.9854 0.0748 0.1526
vn 0.9302 0.2159 -0.2968
vn 0.5237 -0.1320 0.8416
vn 0.9982 -0.0301 -0.0515
vn -0.1936 0.9808 -0.0251
vn 0.6197 -0.1569 0.7690
vn 0.2102 0.7751 0.5959
vn -0.9747 -0.2227 0.0188
vn 0.6600 -0.6882 0.3012
vn -0.0240 -0.7875 0.6159
vn 0.5508 -0.1158 0.8266
vn -0.1718 0.5689 0.8043
vn -0.7398 0.6342 -0.2245
vn -0.1363 -0.0513 -0.9893
vn 0.5440 -0.2264 0.8080
vn 0.5797 -0.1746 0.7959
vn 0.5559 0.6302 0.5421
vn 0.6806 -0.0058 -0.7327
vn -0.9434 0.2077 -0.2584
vn 0.3990 -0.8765 -0.2695
vn -0.2180 -0.0020 -0.9759
vn -0.2394 -0.8939 -0.3790
vn -0.6067 0.2398 -0.7579
vn -0.7954 -0.1993 0.5724
vn -0.4787 -0.8651 -0.1499
vn 0.7556 -0.0152 0.6548
vn -0.4125 0.4652 0.7832
vn 0.8716 0.4862 0.0629
vn 0.7554 -0.0184 0.6550
vn -0.4895 0.6594 0.5706
vn 0.6129 -0.0286 -0.7896
vn 0.4724 -0.4817 0.7381
vn 0.9885 -0.1494 0.0218
vn 0.8974 -0.1819 -0.4019
vn 0.5594 0.3569 -0.7481
vn -0.5960 -0.0302 0.8024
vn -0.8994 -0.0594 0.4331
vn -0.1542 -0.9289 0.3366
vn -0.5315 -0.2637 -0.8050
vn 0.7377 -0.2335 0.6334
vn -0.0572 0.0262 -0.9980
vn -0.2954 0.0115 0.9553
vn -0.1087 -0.9107 -0.3985
vn -0.4738 0.0985 0.8751
vn -0.3510 0.8530 -0.3862
vn 0.3449 0.0745 0.9357
vn -0.8784 -0.4566 -0.1409
vn -0.9700 -0.2270 0.0871
vn -0.4408 0.0991 0.8921
vn 0.3311 -0.1713 -0.9279
vn 0.7081 0.1605 0.6876
vn -0.4987 0.0202 0.8665
vn 0.5574 0.4466 0.6999
vn -0.8586 0.1244 0.4973
vn 0.6410 -0.7638 0.0764
vn 0.9937 -0.0923 -0.0642
vn -0.1374 -0.7472 -0.6503
vn 0.1023 -0.2381 0.9658
vn 0.4100 -0.2219 -0.8847
vn 0.4028 -0.0194 -0.9151
vn 0.9733 0.0718 0.2180
vn -0.9429 -0.0266 -0.3319
vn -0.7008 0.0510 0.7115
vn -0.0684 -0.2535 -0.9649
vn 0.9516 0.2975 -0.0769
vn 0.5766 -0.1824 0.7964
vn -0.3311 0.3575 -0.8733
vn -0.6439 0.0270 -0.7646
vn -0.2763 -0.8898 -0.3632
vn 0.9114 -0.2371 -0.3363
vn 0.5742 0.7057 0.4152
vn 0.9867 -0.1534 0.0532
vn 0.1336 0.9203 -0.3676
vn -0.2901 0.0420 -0.9561
vn -0.5070 0.7531 0.4192
vn -0.3836 -0.7058 0.5956
vn 0.0025 0.2336 -0.9723
vn -0.3574 0.0398 -0.9331
vn -0.8306 0.1262 0.5425
vn 0.8369 0.3057 0.4541
vn -0.5462 0.0126 -0.8376
vn -0.7165 0.1093 0.6890
vn -0.4241 0.9043 0.0479
vn -0.6363 -0.1929 0.7470
vn 0.1910 0.7560 0.6261
vn 0.8899 -0.0407 -0.4544
vn -0.1983 -0.0681 -0.9778
vn -0.5687 0.0924 -0.8173
vn -0.7318 0.1051 -0.6734
vn -0.8610 0.3646 0.3546
vn -0.8611 0.0579 -0.5050
vn -0.6769 0.1645 -0.7174
vn 0.9258 0.0024 -0.3781
vn 0.5935 0.0398 -0.8038
vn 0.5284 0.0527 -0.8474
vn 0.7300 -0.5854 -0.3528
vn 0.9330 0.1489 -0.3275
vn -0.1471 0.8511 -0.5040
vn 0.0702 -0.4916 0.8680
vn 0.2636 -0.1204 -0.9571
vn -0.9756 0.1621 -0.1484
vn -0.9977 0.0037 0.0679
vn 0.1720 0.8183 -0.5485
vn 0.5848 -0.7803 0.2217
vn -0.4242 0.6233 0.6569
vn -0.8602 -0.0136 0.5097
vn 0.7590 -0.0214 0.6507
vn -0.6072 -0.1082 0.7872
vn 0.4977 -0.1475 0.8547
vn -0.1756 0.5692 0.8032
vn -0.1269 -0.2117 -0.9691
vn -0.5395 -0.3907 0.7458
vn -0.3239 -0.6832 -0.6544
vn 0.3287 -0.7281 -0.6015
vn -0.8628 0.0658 -0.5012
vn -0.1518 0.9398 0.3063
vn -0.6849 0.6752 0.2740
vn -0.7942 -0.0497 0.6057
vn -0.2253 0.0665 0.9720
vn -0.2186 0.0563 0.9742
vn -0.9348 0.3552 -0.0002
vn -0.8480 -0.0312 -0.5291
vn 0.8462 0.1538 -0.5102
vn -0.4407 -0.0283 0.8972
vn -0.1000 -0.1801 0.9786
vn -0.3752 -0.4644 0.8022
vn -0.6086 0.4376 -0.6619
vn -0.0209 0.0896 -0.9958
vn -0.2017 0.0748 -0.9766
vn -0.2161 -0.1284 0.9679
vn -0.2119 0.8617 0.4611
vn -0.9914 -0.0562 0.1179
vn -0.7614 -0.1416 0.6326
vn -0.8097 -0.0872 -0.5804
vn 0.8854 -0.1190 0.4493
vn 0.1150 0.0716 0.9908
vn 0.2545 -0.5344 -0.8060
vn 0.2275 -0.6976 -0.6794
vn -0.1620 0.5480 0.8207
vn 0.7916 -0.5850 0.1764
vn -0.8602 0.0291 -0.5091
vn -0.9438 -0.0421 -0.3278
vn -0.9860 -0.1385 -0.0926
vn 0.5319 0.5836 -0.6136
vn 0.0443 0.5749 0.8170
vn 0.8529 0.5167 0.0745
vn 0.2703 -0.5122 0.8152
vn 0.1789 -0.5424 -0.8209
vn -0.5586 -0.1308 0.8191
vn 0.5177 -0.5902 0.6195
vn 0.9869 -0.1342 -0.0893
vn -0.5116 -0.0859 0.8549
vn 0.7797 0.2874 0.5563
vn 0.4950 -0.2181 -0.8411
vn -0.0076 0.2012 -0.9795
vn -0.4958 -0.3403 -0.7990
vn 0.0347 0.4787 0.8773
vn -0.5639 0.1043 -0.8192
vn 0.8184 0.0657 0.5709
vn -0.1970 -0.9242 -0.3271
vn -0.6106 -0.2738 0.7431
vn 0.9977 0.0315 -0.0605
vn 0.3407 -0.9144 -0.2187
vn 0.0955 0.9600 0.2633
vn 0.0634 0.8014 0.5948
vn 0.8464 0.2034 -0.4922
vn -0.1518 0.5533 0.8191
vn 0.6524 0.5852 0.4816
vn -0.9243 0.0653 -0.3761
vn -0.0193 0.4818 0.8761
vn 0.5731 -0.4814 0.6632
vn 0.4046 -0.5302 -0.7451
vn -0.8908 -0.1047 0.4422
vn 0.3323 -0.5123 0.7919
vn 0.9239 0.0721 -0.3757
vn 0.0559 -0.9248 -0.3764
vn -0.0561 0.4129 0.9090
vn 0.9243 -0.0655 0.3760
vn 0.9913 -0.0347 -0.1273
vn -0.3723 -0.1278 -0.9193
vn -0.6088 -0.0640 -0.7908
vn -0.1880 -0.2281 -0.9553
vn -0.8432 -0.2078 -0.4958
vn 0.9254 0.2228 -0.3067
vn 0.3694 0.0265 -0.9289
vn -0.0473 -0.3670 -0.9290
vn 0.8741 -0.2036 -0.4410
vn 0.0705 0.4384 0.8960
vn -0.2342 0.9721 0.0146
vn -0.0357 0.2316 0.9722
vn -0.3757 0.6923 0.6161
vn 0.3757 0.1414 -0.9159
vn -0.6994 -0.2972 0.6499
vn 0.3603 0.8604 -0.3604
vn 0.1606 -0.1716 0.9720
vn -0.2567 -0.2556 -0.9321
vn 0.2576 -0.8517 0.4564
vn 0.9486 -0.0183 0.3160
vn -0.5627 0.4723 -0.6784
vn -0.5621 0.4836 -0.6710
vn -0.4970 -0.8518 -0.1657
vn 0.4078 0.4466 0.7964
vn 0.8917 0.3603 0.2741
vn -0.7444 -0.2131 -0.6328
vn 0.3144 -0.5576 -0.7683
vn -0.0491 0.0944 -0.9943
vn 0.7219 0.6827 0.1129
vn 0.4588 -0.4508 -0.7657
vn 0.9359 -0.3475 -0.0580
vn 0.6670 -0.3667 0.6486
vn 0.5497 -0.1976 0.8116
vn -0.6570 -0.0070 0.7538
vn -0.8596 0.0883 0.5033
vn -0.8529 0.1204 0.5080
vn -0.1966 -0.4399 -0.8762
vn -0.4649 0.6270 0.6251
vn 0.5619 0.0451 -0.8260
vn -0.9894 -0.0442 -0.1385
vn -0.6592 0.2086 0.7224
vn 0.6194 0.0492 -0.7836
vn 0.9411 -0.1090 0.3202
vn 0.0757 -0.6205 -0.7805
vn -0.3692 -0.7459 -0.5544
vn -0.1852 -0.0064 0.9827
vn 0.6352 0.4679 0.6145
vn -0.1416 -0.6034 -0.7848
vn 0.3595 -0.0625 0.9310
vn -0.6992 -0.6585 0.2783
vn -0.1408 -0.9820 0.1257
vn -0.3839 -0.5394 0.7495
vn 0.0982 0.4201 0.9021
vn -0.0058 -0.9857 0.1682
s off
f 5//1 104//1 6//1
f 10//2 9//2 45//2
f 78//3 79//3 12//3
f 1//4 24//4 40//4
f 15//5 86//5 112//5
f 17//6 48//6 91//6
f 18//7 116//7 94//7
f 19//8 5//8 95//8
f 103//9 23//9 22//9
f 22//10 23//10 33//10
f 20//11 82//11 21//11
f 92//12 65//12 47//12
f 30//13 22//13 110//13
f 98//14 110//14 22//14
f 20//15 36//15 89//15
f 105//16 38//16 37//16
f 86//17 39//17 23//17
f 102//18 79//18 44//18
f 11//19 59//19 45//19
f 91//20 48//20 25//20
f 30//21 103//21 22//21
f 51//22 52//22 7//22
f 4//23 111//23 53//23
f 94//24 5//24 19//24
f 93//25 84//25 11//25
f 93//26 11//26 121//26
f 36//27 42//27 89//27
f 95//28 74//28 28//28
f 72//29 94//29 20//29
f 41//30 119//30 58//30
f 60//31 117//31 61//31
f 63//32 64//32 97//32
f 81//33 116//33 18//33
f 101//34 102//34 44//34
f 17//35 82//35 66//35
f 70//36 71//36 77//36
f 85//37 72//37 20//37
f 39//38 114//38 23//38
f 105//39 76//39 38//39
f 53//40 101//40 7//40
f 28//41 19//41 95//41
f 71//42 11//42 77//42
f 97//43 41//43 96//43
f 61//44 41//44 97//44
f 14//45 75//45 108//45
f 84//46 100//46 109//46
f 26//47 2//47 81//47
f 82//48 17//48 113//48
f 14//49 9//49 75//49
f 105//50 37//50 84//50
f 24//51 1//51 13//51
f 85//52 86//52 87//52
f 62//53 54//53 17//53
f 87//54 50//54 85//54
f 83//55 4//55 88//55
f 85//56 89//56 112//56
f 91//57 113//57 17//57
f 90//58 99//58 26//58
f 43//59 90//59 76//59
f 92//60 46//60 9//60
f 103//61 87//61 23//61
f 87//62 103//62 50//62
f 93//63 121//63 52//63
f 43//64 99//64 90//64
f 96//65 63//65 97//65
f 98//66 57//66 110//66
f 60//67 97//67 64//67
f 123//68 100//68 101//68
f 75//69 122//69 24//69
f 24//70 122//70 40//70
f 47//71 8//71 77//71
f 20//72 94//72 49//72
f 103//73 30//73 81//73
f 5//74 32//74 104//74
f 47//75 65//75 8//75
f 30//76 110//76 67//76
f 107//77 14//77 108//77
f 29//78 120//78 27//78
f 64//79 63//79 54//79
f 46//80 47//80 45//80
f 70//81 8//81 56//81
f 38//82 40//82 59//82
f 56//83 31//83 88//83
f 13//84 55//84 24//84
f 80//85 15//85 112//85
f 25//86 113//86 91//86
f 83//87 92//87 9//87
f 14//88 83//88 9//88
f 85//89 50//89 18//89
f 73//90 39//90 34//90
f 3//91 55//91 13//91
f 42//92 113//92 25//92
f 88//93 4//93 7//93
f 81//94 67//94 26//94
f 7//95 52//95 71//95
f 122//96 59//96 40//96
f 12//97 107//97 24//97
f 12//98 24//98 55//98
f 78//99 12//99 55//99
f 101//100 53//100 102//100
f 81//101 3//101 116//101
f 29//102 27//102 117//102
f 40//103 57//103 98//103
f 28//104 74//104 29//104
f 33//105 32//105 1//105
f 122//106 10//106 59//106
f 16//107 114//107 73//107
f 83//108 88//108 31//108
f 71//109 121//109 11//109
f 24//110 108//110 75//110
f 72//111 18//111 94//111
f 44//112 78//112 43//112
f 28//113 29//113 117//113
f 11//114 45//114 77//114
f 69//115 80//115 115//115
f 81//116 18//116 103//116
f 38//117 76//117 35//117
f 109//118 44//118 43//118
f 76//119 67//119 35//119
f 51//120 7//120 101//120
f 27//121 16//121 61//121
f 101//122 100//122 93//122
f 49//123 19//123 66//123
f 10//124 45//124 59//124
f 78//125 55//125 99//125
f 88//126 7//126 56//126
f 36//127 20//127 21//127
f 30//128 67//128 81//128
f 42//129 21//129 82//129
f 113//130 42//130 82//130
f 53//131 111//131 102//131
f 111//132 107//132 79//132
f 33//133 114//133 104//133
f 76//134 90//134 26//134
f 69//135 115//135 68//135
f 85//136 112//136 86//136
f 83//137 14//137 4//137
f 13//138 1//138 116//138
f 94//139 116//139 32//139
f 76//140 26//140 67//140
f 118//141 80//141 112//141
f 44//142 79//142 78//142
f 44//143 109//143 123//143
f 79//144 107//144 12//144
f 59//145 37//145 38//145
f 94//146 32//146 5//146
f 41//147 16//147 119//147
f 95//148 6//148 74//148
f 51//149 101//149 93//149
f 11//150 37//150 59//150
f 99//151 55//151 3//151
f 2//152 99//152 3//152
f 82//153 20//153 49//153
f 92//154 31//154 65//154
f 15//155 39//155 86//155
f 73//156 114//156 39//156
f 96//157 34//157 106//157
f 95//158 5//158 6//158
f 109//159 43//159 105//159
f 34//160 96//160 58//160
f 73//161 58//161 119//161
f 84//162 109//162 105//162
f 23//163 87//163 86//163
f 122//164 75//164 10//164
f 31//165 92//165 83//165
f 117//166 60//166 64//166
f 80//167 42//167 25//167
f 3//168 13//168 116//168
f 8//169 70//169 77//169
f 62//170 64//170 54//170
f 101//171 44//171 123//171
f 40//172 38//172 57//172
f 41//173 58//173 96//173
f 42//174 80//174 118//174
f 7//175 70//175 56//175
f 16//176 104//176 114//176
f 93//177 52//177 51//177
f 118//178 89//178 42//178
f 81//179 2//179 3//179
f 71//180 70//180 7//180
f 84//181 37//181 11//181
f 16//182 41//182 61//182
f 99//183 2//183 26//183
f 115//184 25//184 48//184
f 46//185 92//185 47//185
f 66//186 62//186 17//186
f 36//187 21//187 42//187
f 34//188 58//188 73//188
f 33//189 98//189 22//189
f 24//190 107//190 108//190
f 66//191 28//191 62//191
f 117//192 27//192 61//192
f 104//193 27//193 120//193
f 119//194 16//194 73//194
f 64//195 62//195 28//195
f 28//196 117//196 64//196
f 60//197 61//197 97//197
f 25//198 115//198 80//198
f 7//199 4//199 53//199
f 15//200 106//200 34//200
f 69//201 15//201 80//201
f 32//202 33//202 104//202
f 100//203 84//203 93//203
f 31//204 56//204 65//204
f 100//205 123//205 109//205
f 74//206 120//206 29//206
f 68//207 63//207 96//207
f 57//208 38//208 35//208
f 111//209 14//209 107//209
f 4//210 14//210 111//210
f 49//211 66//211 82//211
f 118//212 112//212 89//212
f 23//213 114//213 33//213
f 94//214 19//214 49//214
f 9//215 46//215 45//215
f 116//216 1//216 32//216
f 8//217 65//217 56//217
f 19//218 28//218 66//218
f 77//219 45//219 47//219
f 106//220 68//220 96//220
f 67//221 110//221 35//221
f 105//222 43//222 76//222
f 103//223 18//223 50//223
f 43//224 78//224 99//224
f 27//225 104//225 16//225
f 89//226 85//226 20//226
f 1//227 40//227 98//227
f 102//228 111//228 79//228
f 85//229 18//229 72//229
f 1//230 98//230 33//230
f 35//231 110//231 57//231
f 9//232 10//232 75//232
f 6//233 104//233 120//233
f 71//234 52//234 121//234
f 15//235 69//235 106//235
f 74//236 6//236 120//236
f 106//237 69//237 68//237
f 54//238 63//238 68//238
f 68//239 48//239 54//239
f 115//240 48//240 68//240
f 15//241 34//241 39//241
f 17//242 54//242 48//242
