v -0.273212 -2.016629 -0.012211
v -0.434355 -1.649302 -0.073752
v -0.292605 -1.781691 -0.149080
v -0.286054 -1.605736 -0.078134
v -0.197434 -1.850481 -0.108696
v -0.343259 -1.877080 -0.137404
v -0.260537 -2.512555 -0.161492
v -0.324296 -1.767071 -0.028494
v -0.292372 -2.720906 -0.102605
v -0.304599 -3.012091 -0.267056
v -0.349139 -3.133726 -0.299780
v -0.225978 -3.158443 -0.303393
v -0.295419 -2.818236 -0.120836
v -0.225096 -2.970592 -0.181758
v -0.306951 -2.162348 -0.143035
v -0.264624 -2.029660 -0.143219
v -0.310835 -1.947341 -0.141903
v -0.236792 -2.139567 -0.076833
v -0.352714 -2.059961 -0.083400
v -0.358151 -1.889984 -0.101774
v -0.350266 -2.488211 -0.139543
v -0.319358 -2.790527 -0.202439
v -0.149953 -1.698367 -0.178496
v -0.168383 -1.624330 -0.083258
v -0.261536 -2.784251 -0.206915
v -0.412566 -1.681437 -0.032359
v -0.286059 -1.690422 -0.209238
v -0.351957 -1.716519 -0.192422
v -0.262832 -2.967177 -0.139150
v -0.314839 -3.148595 -0.220169
v -0.208706 -1.929356 -0.109080
v -0.175679 -1.742094 -0.171479
v -0.427966 -1.710430 -0.071628
v -0.243250 -2.543847 -0.138677
v -0.367394 -1.629750 -0.187892
v -0.291914 -1.649326 -0.203808
v -0.437448 -1.712295 -0.138308
v -0.244072 -1.614085 -0.188037
v -0.334334 -3.096888 -0.169640
v -0.357196 -3.121441 -0.211991
v -0.258922 -1.850692 0.032505
v -0.239384 -1.882878 -0.000478
v -0.281014 -1.877712 0.016786
v -0.239206 -2.969561 -0.234262
v -0.334207 -1.720554 -0.003552
v -0.342276 -2.739702 -0.169803
v -0.181746 -3.201768 -0.212177
v -0.404204 -1.730873 -0.111614
v -0.330219 -2.300232 -0.138274
v -0.218871 -1.697668 0.000036
v -0.173050 -3.139650 -0.172251
v -0.157420 -1.667009 -0.046338
v -0.135372 -1.671775 -0.115510
v -0.312424 -2.953070 -0.152389
v -0.325880 -1.633083 -0.041301
v -0.394681 -1.649084 -0.022700
v -0.307955 -1.679060 0.017535
v -0.337793 -2.552628 -0.107071
v -0.388427 -1.763649 -0.152531
v -0.318834 -3.137167 -0.319628
v -0.209269 -1.789935 -0.073165
v -0.199794 -3.162759 -0.173985
v -0.265557 -3.151303 -0.299768
v -0.244739 -1.679855 -0.223229
v -0.219543 -1.637274 -0.021588
v -0.225956 -3.110785 -0.286335
v -0.270753 -3.165627 -0.152232
v -0.354789 -3.102822 -0.241040
v -0.272406 -3.105655 -0.147772
v -0.289379 -3.134150 -0.135402
v -0.289308 -2.213791 -0.039199
v -0.287249 -2.381510 -0.065624
v -0.227046 -1.844443 -0.140750
v -0.241841 -2.791151 -0.181861
v -0.200772 -3.207088 -0.243758
v -0.220878 -3.088731 -0.163959
v -0.172671 -1.747350 -0.108509
v -0.343597 -3.154029 -0.286981
v -0.354258 -3.166710 -0.186968
v -0.243054 -2.139982 -0.131386
v -0.194177 -3.088459 -0.200173
v -0.259401 -1.729524 0.034311
v -0.275359 -1.641539 -0.002274
v -0.239286 -2.311230 -0.119575
v -0.160650 -3.167930 -0.226351
v -0.292368 -3.157841 -0.268837
v -0.186677 -1.681868 -0.214616
v -0.384679 -1.691636 -0.203124
v -0.172186 -1.625227 -0.191178
v -0.340691 -2.977046 -0.222551
v -0.306314 -1.610307 -0.159209
v -0.414869 -1.641366 -0.162157
v -0.281018 -1.796531 0.027814
v -0.239081 -1.788762 0.029943
v -0.380488 -2.325706 -0.176297
v -0.435529 -2.255133 -0.192540
v -0.434739 -1.881280 -0.168208
v -0.388123 -2.511009 -0.167749
v -0.329199 -3.126279 -0.220373
v -0.411277 -3.188331 -0.249069
v -0.356900 -2.983914 -0.204439
v -0.388854 -3.188048 -0.190213
v -0.381408 -3.239189 -0.244254
v -0.381868 -2.899835 -0.243318
v -0.386070 -3.048491 -0.239950
v -0.399881 -2.144025 -0.142827
v -0.442366 -1.698628 -0.132085
v -0.410978 -1.897448 -0.161728
v -0.413069 -2.533620 -0.182044
v -0.334043 -2.966223 -0.224464
v -0.374564 -3.208415 -0.284555
v -0.363152 -2.764476 -0.192079
v -0.387067 -2.827734 -0.192696
v -0.414791 -2.550421 -0.209210
v -0.339457 -3.217517 -0.251340
v -0.335014 -3.151259 -0.275525
v -0.444934 -1.852265 -0.151755
v -0.382630 -3.162410 -0.298848
v -0.339750 -3.206987 -0.210012
v -0.405611 -1.769564 -0.088137
v -0.380315 -1.741890 -0.128846
v -0.427230 -1.960333 -0.127895
v -0.463009 -1.750710 -0.088671
v -0.418092 -1.724319 -0.093441
v -0.408575 -2.214513 -0.199205
v -0.470380 -1.736886 -0.172756
v -0.357622 -2.683936 -0.208420
v -0.411111 -1.850159 -0.121439
v -0.376345 -3.095531 -0.260867
v -0.385339 -2.667291 -0.232048
v -0.354539 -3.137092 -0.185877
v -0.343467 -3.093722 -0.255655
v -0.411224 -1.727595 -0.179951
vn 0.7636 -0.0813 0.6406
vn -0.7965 -0.3799 -0.4705
vn -0.5129 0.8547 0.0800
vn -0.7469 -0.1765 0.6411
vn -0.4276 -0.0915 0.8993
vn 0.8716 0.0816 0.4834
vn 0.9368 -0.1355 0.3226
vn 0.9234 0.2270 -0.3096
vn 0.7875 -0.1901 0.5863
vn -0.7039 0.1552 -0.6931
vn 0.1494 0.3452 -0.9266
vn 0.1016 -0.5670 -0.8175
vn -0.3044 -0.9092 0.2840
vn -0.1307 0.2712 -0.9536
vn -0.4754 -0.1184 0.8718
vn 0.3592 -0.1713 0.9174
vn 0.0065 -0.1249 -0.9921
vn 0.6696 -0.4112 -0.6185
vn -0.9849 -0.0980 0.1428
vn -0.5459 -0.8318 0.1009
vn -0.6918 0.0786 -0.7178
vn 0.2692 0.0968 0.9582
vn -0.8099 -0.0790 0.5812
vn -0.9489 -0.2833 -0.1390
vn 0.2321 -0.6239 0.7463
vn -0.1733 0.5733 0.8008
vn 0.2727 -0.1523 0.9500
vn 0.3757 0.9238 0.0733
vn 0.7490 0.0940 0.6558
vn -0.8145 -0.3460 -0.4657
vn 0.9562 -0.0928 0.2775
vn 0.1526 0.9882 -0.0136
vn 0.8096 0.5860 -0.0334
vn -0.8160 -0.3984 0.4188
vn -0.6588 -0.0560 0.7502
vn -0.2622 -0.1533 0.9528
vn 0.7214 -0.0998 -0.6853
vn -0.9936 0.1128 -0.0100
vn 0.5926 -0.4895 -0.6397
vn -0.2781 0.0138 -0.9605
vn 0.6745 -0.1068 0.7305
vn -0.1439 -0.5374 -0.8310
vn -0.3372 0.0759 -0.9384
vn -0.2687 -0.0413 0.9623
vn -0.1046 -0.2375 -0.9657
vn 0.0521 -0.6037 -0.7955
vn -0.6073 -0.0028 0.7944
vn 0.7202 0.0999 -0.6866
vn 0.5284 -0.4285 -0.7329
vn -0.0619 0.0610 0.9962
vn 0.7377 -0.2098 0.6417
vn 0.6708 0.5489 0.4987
vn 0.7947 0.1545 0.5871
vn -0.9839 -0.1310 -0.1215
vn 0.8958 -0.4440 -0.0199
vn 0.7572 0.2198 -0.6150
vn -0.7635 -0.0543 0.6435
vn 0.0309 0.9975 -0.0640
vn 0.8932 0.2270 -0.3882
vn -0.9044 0.1599 0.3955
vn -0.6160 -0.0196 0.7875
vn -0.5197 -0.5771 0.6299
vn -0.9064 -0.0803 0.4148
vn -0.7786 0.0505 -0.6254
vn 0.0855 -0.9872 -0.1346
vn 0.5110 0.0077 -0.8596
vn -0.8293 -0.0994 0.5499
vn -0.8393 0.0318 0.5428
vn 0.7857 -0.0639 0.6153
vn -0.4608 -0.1527 0.8743
vn -0.7810 0.0390 -0.6234
vn 0.7283 -0.5958 -0.3384
vn -0.3055 -0.5832 0.7527
vn -0.7658 0.2460 0.5941
vn -0.9662 -0.0608 0.2505
vn -0.0254 0.3369 -0.9412
vn -0.0713 0.9864 0.1479
vn -0.4454 0.0570 0.8935
vn 0.9826 -0.1484 -0.1117
vn 0.9497 -0.0805 0.3027
vn -0.1326 -0.9402 -0.3137
vn 0.2238 0.3556 -0.9074
vn 0.8180 0.0332 -0.5743
vn -0.9117 -0.0949 0.3997
vn -0.0498 -0.4491 -0.8921
vn 0.3602 -0.9295 -0.0795
vn -0.0726 -0.5452 -0.8351
vn 0.9623 0.0897 -0.2568
vn 0.2539 0.7671 -0.5891
vn -0.4297 -0.0319 0.9024
vn -0.3543 0.4440 -0.8230
vn 0.9533 -0.1205 0.2770
vn -0.9580 -0.0426 0.2834
vn -0.1962 -0.7988 -0.5687
vn -0.7667 -0.5370 0.3519
vn 0.5744 0.1375 0.8070
vn 0.0751 0.9058 0.4169
vn -0.0348 -0.0853 0.9957
vn -0.1195 0.9270 0.3555
vn 0.3894 -0.1813 0.9030
vn -0.4195 -0.1861 0.8885
vn 0.8517 0.0948 -0.5153
vn 0.4198 0.2496 -0.8726
vn 0.7968 0.1811 -0.5765
vn -0.9824 -0.0509 -0.1800
vn 0.2699 0.4110 0.8708
vn 0.4652 0.3030 0.8317
vn 0.2900 -0.3121 0.9047
vn 0.8468 -0.3664 0.3856
vn 0.3435 -0.0245 -0.9388
vn 0.8653 -0.3990 0.3033
vn 0.0839 -0.6808 -0.7276
vn -0.5111 0.3373 -0.7906
vn -0.2171 0.9753 0.0397
vn -0.9524 0.2398 -0.1884
vn -0.1679 0.9833 0.0699
vn -0.1877 0.9719 0.1417
vn 0.2241 0.3558 -0.9073
vn -0.4988 -0.5555 -0.6653
vn -0.6318 -0.4233 -0.6493
vn 0.9084 -0.0088 -0.4181
vn 0.1543 0.0724 -0.9854
vn 0.0777 -0.9086 -0.4104
vn 0.0188 -0.9974 -0.0701
vn 0.7953 0.0971 -0.5984
vn -0.7394 0.0834 -0.6681
vn -0.1198 -0.9840 0.1316
vn -0.3688 -0.9295 0.0063
vn 0.3228 -0.0810 0.9430
vn 0.7842 0.4659 -0.4099
vn -0.9861 -0.0903 -0.1396
vn 0.8267 -0.1472 0.5431
vn -0.7363 -0.4349 0.5184
vn 0.0117 -0.1276 -0.9918
vn 0.7967 -0.0996 0.5962
vn -0.9695 -0.2428 0.0345
vn -0.8698 0.3972 -0.2926
vn 0.0695 0.1310 -0.9889
vn 0.5283 0.6290 0.5703
vn -0.6896 0.1804 -0.7013
vn 0.9280 0.2815 -0.2439
vn 0.0974 0.3971 0.9126
vn -0.6523 -0.0078 -0.7580
vn 0.3464 0.1777 -0.9211
vn -0.3014 -0.1811 0.9361
vn 0.9225 0.3860 0.0097
vn -0.0345 0.0203 -0.9992
vn -0.6786 0.1550 -0.7180
vn 0.0611 0.7609 -0.6460
vn 0.4219 0.1378 0.8961
vn -0.5925 -0.1964 0.7812
vn -0.9343 0.1310 0.3316
vn -0.8965 0.0844 0.4350
vn -0.4742 0.3865 -0.7911
vn 0.7331 -0.1871 0.6539
vn -0.0629 0.1219 -0.9905
vn -0.0939 0.1645 -0.9819
vn -0.6423 -0.6997 0.3129
vn -0.8287 -0.1600 0.5364
vn 0.7493 0.0832 0.6570
vn -0.4619 0.0474 -0.8857
vn 0.2642 -0.3725 0.8896
vn 0.4739 0.3015 0.8273
vn 0.9346 -0.0254 0.3547
vn -0.3522 0.9281 0.1208
vn -0.0197 0.0049 -0.9998
vn 0.9703 -0.2329 -0.0658
vn 0.8529 -0.5153 -0.0838
vn 0.6708 -0.4168 0.6134
vn 0.8341 -0.4278 0.3482
vn 0.9934 0.0140 -0.1141
vn 0.6725 -0.1267 -0.7292
vn -0.5545 -0.6989 0.4518
vn -0.1036 0.2721 -0.9567
vn -0.1617 -0.5616 -0.8114
vn -0.1939 0.8763 0.4409
vn 0.2011 -0.0655 -0.9774
vn -0.6508 -0.0506 0.7576
vn 0.8660 0.4353 0.2460
vn 0.0345 0.4712 -0.8813
vn 0.1497 -0.9318 -0.3307
vn -0.5737 -0.1334 0.8081
vn 0.3040 0.2212 0.9266
vn 0.4124 -0.5327 0.7390
vn 0.9329 0.0190 -0.3597
vn -0.8022 0.5144 0.3031
vn 0.6083 0.1047 0.7868
vn -0.0032 -0.7265 0.6871
vn 0.9258 -0.2436 0.2890
vn -0.5840 -0.1724 0.7933
vn 0.4764 -0.3295 -0.8151
vn -0.1948 0.7778 -0.5975
vn 0.1111 0.4829 -0.8686
vn 0.8888 -0.2255 0.3990
vn 0.9584 0.2083 -0.1954
vn 0.7224 0.2737 0.6350
vn -0.7430 -0.3139 -0.5911
vn -0.9560 -0.2412 -0.1669
vn -0.8194 0.0565 0.5704
vn 0.1509 0.0925 -0.9842
vn -0.4284 -0.0955 0.8985
vn 0.2722 -0.2621 0.9259
vn 0.7625 0.1000 -0.6392
vn -0.7793 0.1001 0.6185
vn -0.5574 -0.5074 0.6571
vn 0.0318 0.1250 0.9916
vn 0.9981 0.0414 -0.0453
vn -0.9148 -0.0618 0.3991
vn -0.8302 -0.4574 0.3185
vn 0.3324 0.1132 -0.9363
vn 0.8721 0.0391 0.4878
vn -0.7318 -0.4760 -0.4877
vn 0.9899 -0.1350 -0.0432
vn -0.5265 0.0333 -0.8495
vn -0.0824 0.0470 -0.9955
vn 0.8101 -0.0308 0.5855
vn 0.7993 0.0395 0.5996
vn -0.9927 -0.0636 0.1022
vn 0.1950 -0.1043 -0.9752
vn 0.9980 -0.0589 0.0221
vn 0.5548 0.8100 0.1900
vn -0.5219 0.0350 -0.8523
vn -0.8680 0.4722 0.1537
vn -0.6683 0.0543 0.7419
vn 0.0765 -0.0695 0.9946
vn 0.7910 -0.0044 0.6118
vn 0.8385 0.1015 -0.5353
vn -0.3287 0.6782 0.6573
vn 0.7954 0.0771 -0.6011
vn 0.1136 -0.0526 0.9921
vn 0.1135 -0.0637 0.9915
vn 0.6687 -0.0228 0.7431
vn 0.3406 0.4399 -0.8310
vn -0.1114 -0.0588 -0.9920
vn -0.1304 -0.3710 0.9194
vn -0.9772 -0.2061 0.0518
vn 0.5720 0.8116 -0.1190
vn -0.9003 -0.0950 0.4247
vn 0.0566 -0.0311 0.9979
vn -0.9192 -0.0595 0.3892
vn 0.6815 0.1070 -0.7240
vn -0.3268 0.0621 -0.9431
vn -0.4042 -0.1268 0.9058
vn -0.8904 0.1875 -0.4148
vn -0.2877 0.0338 -0.9571
vn 0.3442 0.3513 -0.8707
vn 0.6762 0.0878 -0.7314
vn 0.9713 0.0613 0.2299
vn 0.6675 -0.1117 -0.7362
vn -0.9911 -0.0758 0.1097
vn 0.4768 -0.8510 0.2202
vn -0.8933 0.0151 -0.4492
vn 0.3113 -0.7800 -0.5428
vn -0.7006 0.0036 -0.7135
vn 0.8414 -0.0097 0.5404
vn 0.8474 -0.0554 -0.5280
vn 0.8620 0.0433 0.5051
vn -0.8170 0.0392 -0.5753
s off
f 72//1 9//1 34//1
f 20//2 59//2 6//2
f 4//3 91//3 55//3
f 8//4 48//4 20//4
f 58//5 9//5 72//5
f 9//6 14//6 74//6
f 5//7 42//7 31//7
f 23//8 89//8 53//8
f 77//9 61//9 5//9
f 22//10 10//10 90//10
f 64//11 89//11 87//11
f 64//12 87//12 32//12
f 45//13 33//13 48//13
f 35//14 36//14 88//14
f 93//15 43//15 41//15
f 42//16 43//16 1//16
f 73//17 6//17 3//17
f 75//18 12//18 85//18
f 2//19 37//19 33//19
f 33//20 37//20 48//20
f 49//21 22//21 21//21
f 76//22 69//22 51//22
f 93//23 8//23 43//23
f 48//24 59//24 20//24
f 43//25 42//25 41//25
f 83//26 56//26 57//26
f 1//27 71//27 42//27
f 38//28 4//28 65//28
f 14//29 29//29 81//29
f 20//30 6//30 17//30
f 94//31 42//31 61//31
f 89//32 38//32 24//32
f 53//33 89//33 24//33
f 45//34 8//34 93//34
f 71//35 19//35 58//35
f 71//36 58//36 72//36
f 31//37 73//37 5//37
f 40//38 90//38 68//38
f 73//39 32//39 5//39
f 49//40 15//40 7//40
f 18//41 71//41 72//41
f 27//42 64//42 3//42
f 27//43 36//43 64//43
f 29//44 54//44 69//44
f 3//45 32//45 73//45
f 3//46 64//46 32//46
f 70//47 54//47 39//47
f 89//48 23//48 87//48
f 87//49 23//49 32//49
f 94//50 93//50 41//50
f 41//51 42//51 94//51
f 76//52 51//52 81//52
f 81//53 29//53 76//53
f 40//54 78//54 79//54
f 77//55 23//55 53//55
f 12//56 66//56 85//56
f 13//57 46//57 54//57
f 38//58 91//58 4//58
f 66//59 44//59 81//59
f 79//60 39//60 40//60
f 70//61 39//61 79//61
f 26//62 33//62 45//62
f 26//63 2//63 33//63
f 46//64 21//64 22//64
f 63//65 62//65 86//65
f 31//66 80//66 16//66
f 43//67 8//67 20//67
f 43//68 20//68 19//68
f 72//69 34//69 84//69
f 82//70 57//70 45//70
f 88//71 37//71 92//71
f 47//72 75//72 85//72
f 70//73 79//73 67//73
f 56//74 2//74 26//74
f 58//75 21//75 46//75
f 66//76 12//76 63//76
f 65//77 24//77 38//77
f 45//78 93//78 82//78
f 80//79 31//79 18//79
f 18//80 31//80 42//80
f 60//81 63//81 86//81
f 66//82 10//82 44//82
f 7//83 84//83 34//83
f 54//84 46//84 90//84
f 88//85 27//85 28//85
f 30//86 79//86 78//86
f 59//87 27//87 3//87
f 44//88 74//88 14//88
f 64//89 36//89 91//89
f 56//90 26//90 57//90
f 38//91 64//91 91//91
f 50//92 94//92 61//92
f 58//93 19//93 21//93
f 63//94 12//94 75//94
f 63//95 75//95 62//95
f 82//96 94//96 50//96
f 4//97 83//97 65//97
f 82//98 93//98 94//98
f 56//99 83//99 55//99
f 9//100 13//100 14//100
f 45//101 57//101 26//101
f 74//102 7//102 34//102
f 6//103 16//103 17//103
f 44//104 25//104 74//104
f 19//105 20//105 49//105
f 82//106 65//106 83//106
f 82//107 50//107 65//107
f 67//108 62//108 70//108
f 51//109 47//109 85//109
f 60//110 66//110 63//110
f 52//111 77//111 53//111
f 28//112 27//112 59//112
f 88//113 92//113 35//113
f 35//114 92//114 2//114
f 2//115 92//115 37//115
f 2//116 55//116 35//116
f 55//117 2//117 56//117
f 60//118 10//118 66//118
f 60//119 78//119 11//119
f 37//120 88//120 59//120
f 80//121 84//121 7//121
f 15//122 80//122 7//122
f 60//123 86//123 78//123
f 67//124 86//124 62//124
f 74//125 25//125 7//125
f 21//126 19//126 49//126
f 78//127 86//127 30//127
f 86//128 67//128 30//128
f 29//129 69//129 76//129
f 66//130 81//130 85//130
f 40//131 68//131 78//131
f 18//132 72//132 84//132
f 45//133 48//133 8//133
f 59//134 3//134 6//134
f 34//135 9//135 74//135
f 78//136 68//136 11//136
f 10//137 11//137 68//137
f 49//138 7//138 22//138
f 52//139 24//139 65//139
f 90//140 10//140 68//140
f 44//141 14//141 81//141
f 83//142 57//142 82//142
f 20//143 17//143 15//143
f 10//144 25//144 44//144
f 29//145 13//145 54//145
f 81//146 51//146 85//146
f 16//147 6//147 73//147
f 90//148 46//148 22//148
f 36//149 35//149 91//149
f 69//150 54//150 70//150
f 43//151 19//151 1//151
f 54//152 90//152 40//152
f 54//153 40//153 39//153
f 10//154 60//154 11//154
f 42//155 71//155 18//155
f 88//156 36//156 27//156
f 22//157 7//157 25//157
f 37//158 59//158 48//158
f 58//159 46//159 13//159
f 13//160 29//160 14//160
f 49//161 20//161 15//161
f 51//162 70//162 62//162
f 65//163 50//163 52//163
f 61//164 42//164 5//164
f 35//165 55//165 91//165
f 17//166 16//166 15//166
f 5//167 32//167 77//167
f 32//168 23//168 77//168
f 50//169 61//169 52//169
f 52//170 61//170 77//170
f 84//171 80//171 18//171
f 16//172 73//172 31//172
f 62//173 75//173 47//173
f 22//174 25//174 10//174
f 59//175 88//175 28//175
f 55//176 83//176 4//176
f 16//177 80//177 15//177
f 71//178 1//178 19//178
f 24//179 52//179 53//179
f 89//180 64//180 38//180
f 30//181 67//181 79//181
f 58//182 13//182 9//182
f 69//183 70//183 51//183
f 62//184 47//184 51//184
f 132//185 110//185 99//185
f 102//186 131//186 100//186
f 110//187 101//187 131//187
f 102//188 103//188 119//188
f 108//189 121//189 128//189
f 101//190 113//190 105//190
f 118//191 116//191 115//191
f 133//192 126//192 107//192
f 118//193 129//193 132//193
f 120//194 128//194 121//194
f 116//195 132//195 99//195
f 124//196 120//196 121//196
f 118//197 111//197 100//197
f 117//198 126//198 97//198
f 101//199 105//199 131//199
f 104//200 132//200 129//200
f 122//201 109//201 98//201
f 102//202 119//202 131//202
f 132//203 127//203 110//203
f 131//204 105//204 100//204
f 123//205 117//205 128//205
f 124//206 123//206 120//206
f 108//207 128//207 106//207
f 122//208 117//208 96//208
f 103//209 102//209 100//209
f 125//210 97//210 108//210
f 127//211 98//211 112//211
f 111//212 103//212 100//212
f 99//213 119//213 116//213
f 114//214 130//214 104//214
f 130//215 132//215 104//215
f 131//216 119//216 99//216
f 110//217 131//217 99//217
f 105//218 109//218 114//218
f 97//219 133//219 108//219
f 116//220 119//220 115//220
f 124//221 121//221 107//221
f 114//222 125//222 130//222
f 126//223 123//223 107//223
f 122//224 128//224 117//224
f 128//225 122//225 106//225
f 95//226 98//226 127//226
f 125//227 95//227 127//227
f 124//228 107//228 123//228
f 125//229 108//229 95//229
f 112//230 113//230 101//230
f 106//231 122//231 98//231
f 112//232 101//232 110//232
f 105//233 129//233 118//233
f 97//234 126//234 133//234
f 120//235 123//235 128//235
f 117//236 123//236 126//236
f 121//237 133//237 107//237
f 109//238 105//238 113//238
f 113//239 112//239 109//239
f 122//240 96//240 109//240
f 132//241 130//241 127//241
f 97//242 125//242 96//242
f 112//243 98//243 109//243
f 105//244 118//244 100//244
f 96//245 125//245 114//245
f 116//246 118//246 132//246
f 130//247 125//247 127//247
f 95//248 108//248 106//248
f 111//249 118//249 115//249
f 109//250 96//250 114//250
f 103//251 115//251 119//251
f 105//252 104//252 129//252
f 111//253 115//253 103//253
f 105//254 114//254 104//254
f 95//255 106//255 98//255
f 108//256 133//256 121//256
f 127//257 112//257 110//257
f 117//258 97//258 96//258
